<svg xmlns="http://www.w3.org/2000/svg" xmlns:xlink="http://www.w3.org/1999/xlink" viewBox="0 0 1000 1000" width="100" height="100" preserveAspectRatio="xMidYMid meet" style="width: 100%; height: 100%; transform: translate3d(0px, 0px, 0px); content-visibility: visible;"><defs><clipPath id="__lottie_element_42006"><rect width="1000" height="1000" x="0" y="0"></rect></clipPath><clipPath id="__lottie_element_42011"><path d="M0,0 L1000,0 L1000,1000 L0,1000z"></path></clipPath><clipPath id="__lottie_element_42027"><path d="M0,0 L360,0 L360,720 L0,720z"></path></clipPath><clipPath id="__lottie_element_42031"><path d="M0,0 L720,0 L720,720 L0,720z"></path></clipPath><clipPath id="__lottie_element_42071"><path d="M0,0 L720,0 L720,720 L0,720z"></path></clipPath><clipPath id="__lottie_element_42075"><path d="M0,0 L480,0 L480,480 L0,480z"></path></clipPath><radialGradient id="__lottie_element_42099" spreadMethod="pad" gradientUnits="userSpaceOnUse" cx="0" cy="0" r="65.41483890252071" fx="0" fy="0"><stop offset="0%" stop-color="rgb(255,193,77)"></stop><stop offset="50%" stop-color="rgb(255,173,79)"></stop><stop offset="100%" stop-color="rgb(255,153,81)"></stop></radialGradient><radialGradient id="__lottie_element_42103" spreadMethod="pad" gradientUnits="userSpaceOnUse" cx="0" cy="0" r="65.41483890252071" fx="0" fy="0"><stop offset="0%" stop-color="rgb(255,193,77)"></stop><stop offset="50%" stop-color="rgb(255,173,79)"></stop><stop offset="100%" stop-color="rgb(255,153,81)"></stop></radialGradient><radialGradient id="__lottie_element_42107" spreadMethod="pad" gradientUnits="userSpaceOnUse" cx="0" cy="0" r="65.41483890252071" fx="0" fy="0"><stop offset="0%" stop-color="rgb(255,193,77)"></stop><stop offset="50%" stop-color="rgb(255,173,79)"></stop><stop offset="100%" stop-color="rgb(255,153,81)"></stop></radialGradient></defs><g clip-path="url(#__lottie_element_42006)"><g transform="matrix(1,0,0,1,551.3300170898438,586)" opacity="0.12" style="display: block;"><g opacity="1" transform="matrix(1,0,0,1,0,0)"><path fill="rgb(28,177,242)" fill-opacity="1" d=" M-426,-216 C-566.7420043945312,-2 -394.0979919433594,216 -270.2149963378906,216 C-90.11499786376953,216 33.57500076293945,217 238.8780059814453,217 C310.30499267578125,217 386,90 318,-6 C264.7720031738281,-81.1449966430664 126.39399719238281,-33.48099899291992 72,-112 C-124.74199676513672,-396 -327.59600830078125,-365.62298583984375 -426,-216z"></path></g><g opacity="1" transform="matrix(0.7579209208488464,0.1673193722963333,-0.15544141829013824,0.7041164040565491,7.5427093505859375,-57.479156494140625)"><path fill="rgb(28,177,242)" fill-opacity="1" d=" M211.2949981689453,-409.1499938964844 C147.86300659179688,-431.4079895019531 93.7249984741211,-365.9289855957031 84.31700134277344,-322.2080078125 C67.31700134277344,-243.20799255371094 115.27799987792969,-145.10499572753906 248.8159942626953,-115.43000030517578 C338.8160095214844,-95.43000030517578 350.87799072265625,-173.5989990234375 298.6700134277344,-244 C241.4219970703125,-321.1960144042969 271.28399658203125,-388.1000061035156 211.2949981689453,-409.1499938964844z"></path></g></g><g clip-path="url(#__lottie_element_42011)" transform="matrix(1,0,0,1,0,40)" opacity="1" style="display: block;"><g transform="matrix(1,0,0,1,500,544)" opacity="1" style="display: block;"><g opacity="1" transform="matrix(1,0,0,1,0,0)"><path fill="rgb(247,176,139)" fill-opacity="1" d=" M-248.67999267578125,-287.1080017089844 C-300.1239929199219,-314.0069885253906 -325.0050048828125,-267.16900634765625 -285.9949951171875,-236.11300659179688 C-252.2480010986328,-209.2469940185547 -115.00499725341797,-102.11299896240234 -115.00499725341797,-102.11299896240234 C-115.00499725341797,-102.11299896240234 -147,-116 -169.95599365234375,-127.09400177001953 C-219.23599243164062,-150.90899658203125 -247,-120 -243.91600036621094,-98.43599700927734 C-240.33399963378906,-73.38500213623047 -177.51600646972656,-34.959999084472656 -194.3419952392578,-44.35900115966797 C-206.65699768066406,-51.237998962402344 -250,-53 -251.5850067138672,-14.581000328063965 C-252.18800354003906,0.0430000014603138 -202.093994140625,12.114999771118164 -209.81700134277344,14.420999526977539 C-228.5,20 -247.5,30.5 -247.5919952392578,52.24700164794922 C-247.65199279785156,66.50800323486328 -217.83799743652344,72.21499633789062 -203.2899932861328,82.49400329589844 C-149.5,120.5 -90.8479995727539,127.24199676513672 -89.14399719238281,142.5570068359375 C-81.44300079345703,211.7530059814453 -40.50899887084961,240.66099548339844 25.670000076293945,267.6910095214844 C52.57699966430664,278.6809997558594 60,303.5 70,295 C87.64199829101562,280.0039978027344 171.25,214.5 171.25,214.5 C171.25,214.5 -13.809000015258789,-130.4739990234375 -13.809000015258789,-130.4739990234375 C-13.809000015258789,-130.4739990234375 -187.7469940185547,-255.2469940185547 -248.67999267578125,-287.1080017089844z"></path></g><g opacity="1" transform="matrix(1,0,0,1,0,0)"><path fill="rgb(224,149,110)" fill-opacity="1" d=" M-285.9949951171875,-236.11300659179688 C-252.2480010986328,-209.2469940185547 -119.00499725341797,-93.61299896240234 -119.00499725341797,-93.61299896240234 C-119.00499725341797,-93.61299896240234 -147,-116 -169.95599365234375,-127.09400177001953 C-219.23599243164062,-150.90899658203125 -247,-120 -243.91600036621094,-98.43599700927734 C-240.33399963378906,-73.38500213623047 -177.51600646972656,-34.959999084472656 -194.3419952392578,-44.35900115966797 C-206.65699768066406,-51.237998962402344 -250,-53 -251.5850067138672,-14.579999923706055 C-252.18800354003906,0.04399999976158142 -202.093994140625,12.114999771118164 -209.81700134277344,14.420999526977539 C-228.5,20 -247.5,30.5 -247.5919952392578,52.24700164794922 C-247.65199279785156,66.50800323486328 -217.83799743652344,72.21600341796875 -203.2899932861328,82.49400329589844 C-149.5,120.5 -90.8489990234375,127.24199676513672 -89.14399719238281,142.5570068359375 C-81.44300079345703,211.7530059814453 -40.50899887084961,240.66099548339844 25.670000076293945,267.6910095214844 C52.57699966430664,278.6809997558594 60,303.5 70,295 C76.44999694824219,289.51800537109375 75.51899719238281,252.6699981689453 31.0049991607666,230.94200134277344 C-128.86599731445312,152.9080047607422 92.78199768066406,51.582000732421875 -51.60900115966797,-67.70899963378906 C-196,-187 -265.7309875488281,-242.0449981689453 -296.989990234375,-251.9980010986328 C-304.906005859375,-254.51800537109375 -289.92999267578125,-239.24600219726562 -285.9949951171875,-236.11300659179688z"></path></g></g><g transform="matrix(0.800000011920929,0,0,0.800000011920929,579.2319946289062,440)" opacity="1" style="display: block;"><g opacity="1" transform="matrix(1,0,0,1,-123.23200225830078,-6.599999904632568)"><path fill="rgb(255,243,223)" fill-opacity="1" d=" M204.93299865722656,-322.05950927734375 C204.93299865722656,-322.05950927734375 204.93299865722656,322.05950927734375 204.93299865722656,322.05950927734375 C204.93299865722656,355.17352294921875 178.0469970703125,382.05950927734375 144.93299865722656,382.05950927734375 C144.93299865722656,382.05950927734375 -144.93299865722656,382.05950927734375 -144.93299865722656,382.05950927734375 C-178.0469970703125,382.05950927734375 -204.93299865722656,355.17352294921875 -204.93299865722656,322.05950927734375 C-204.93299865722656,322.05950927734375 -204.93299865722656,-322.05950927734375 -204.93299865722656,-322.05950927734375 C-204.93299865722656,-355.17352294921875 -178.0469970703125,-382.05950927734375 -144.93299865722656,-382.05950927734375 C-144.93299865722656,-382.05950927734375 144.93299865722656,-382.05950927734375 144.93299865722656,-382.05950927734375 C178.0469970703125,-382.05950927734375 204.93299865722656,-355.17352294921875 204.93299865722656,-322.05950927734375z"></path></g></g><g transform="matrix(0.800000011920929,0,0,0.800000011920929,467.04638671875,440)" opacity="1" style="display: block;"><g opacity="1" transform="matrix(1,0,0,1,0,0)"><path fill="rgb(244,231,197)" fill-opacity="1" d=" M-186.59800720214844,-106.18599700927734 C-186.59800720214844,-106.18599700927734 -187,324 -187,324 C-187,324 -180,373 -133,373 C-86,373 177.18600463867188,373.8349914550781 177.18600463867188,373.8349914550781 C177.18600463867188,373.8349914550781 -11.34000015258789,368.0409851074219 -95.62899780273438,233.1959991455078 C-160.3209991455078,129.7010040283203 -186.59800720214844,-106.18599700927734 -186.59800720214844,-106.18599700927734z"></path><path stroke-linecap="butt" stroke-linejoin="miter" fill-opacity="0" stroke-miterlimit="4" stroke="rgb(82,85,94)" stroke-opacity="1" stroke-width="0" d=" M-186.59800720214844,-106.18599700927734 C-186.59800720214844,-106.18599700927734 -187,324 -187,324 C-187,324 -180,373 -133,373 C-86,373 177.18600463867188,373.8349914550781 177.18600463867188,373.8349914550781 C177.18600463867188,373.8349914550781 -11.34000015258789,368.0409851074219 -95.62899780273438,233.1959991455078 C-160.3209991455078,129.7010040283203 -186.59800720214844,-106.18599700927734 -186.59800720214844,-106.18599700927734z"></path></g></g><g transform="matrix(0.800000011920929,0,0,0.800000011920929,579.2319946289062,440)" opacity="1" style="display: block;"><g opacity="1" transform="matrix(1,0,0,1,-120.01699829101562,-345.9020080566406)"><path fill="rgb(51,69,125)" fill-opacity="1" d=" M61.457000732421875,0 C61.457000732421875,0 61.457000732421875,0 61.457000732421875,0 C61.457000732421875,7.883339881896973 55.056339263916016,14.284000396728516 47.17300033569336,14.284000396728516 C47.17300033569336,14.284000396728516 -47.17300033569336,14.284000396728516 -47.17300033569336,14.284000396728516 C-55.056339263916016,14.284000396728516 -61.457000732421875,7.883339881896973 -61.457000732421875,0 C-61.457000732421875,0 -61.457000732421875,0 -61.457000732421875,0 C-61.457000732421875,-7.883339881896973 -55.056339263916016,-14.284000396728516 -47.17300033569336,-14.284000396728516 C-47.17300033569336,-14.284000396728516 47.17300033569336,-14.284000396728516 47.17300033569336,-14.284000396728516 C55.056339263916016,-14.284000396728516 61.457000732421875,-7.883339881896973 61.457000732421875,0z"></path></g><g opacity="1" transform="matrix(1,0,0,1,-123.23200225830078,-6.599999904632568)"><path stroke-linecap="butt" stroke-linejoin="miter" fill-opacity="0" stroke-miterlimit="4" stroke="rgb(51,69,125)" stroke-opacity="1" stroke-width="16" d=" M204.93299865722656,-322.05950927734375 C204.93299865722656,-322.05950927734375 204.93299865722656,322.05950927734375 204.93299865722656,322.05950927734375 C204.93299865722656,355.17352294921875 178.0469970703125,382.05950927734375 144.93299865722656,382.05950927734375 C144.93299865722656,382.05950927734375 -144.93299865722656,382.05950927734375 -144.93299865722656,382.05950927734375 C-178.0469970703125,382.05950927734375 -204.93299865722656,355.17352294921875 -204.93299865722656,322.05950927734375 C-204.93299865722656,322.05950927734375 -204.93299865722656,-322.05950927734375 -204.93299865722656,-322.05950927734375 C-204.93299865722656,-355.17352294921875 -178.0469970703125,-382.05950927734375 -144.93299865722656,-382.05950927734375 C-144.93299865722656,-382.05950927734375 144.93299865722656,-382.05950927734375 144.93299865722656,-382.05950927734375 C178.0469970703125,-382.05950927734375 204.93299865722656,-355.17352294921875 204.93299865722656,-322.05950927734375z"></path></g></g><g clip-path="url(#__lottie_element_42027)" transform="matrix(1,0,0,1,320,120)" opacity="1" style="display: block;"><g transform="matrix(1,0,0,1,266.3169860839844,277.01898193359375)" opacity="1" style="display: block;"><g opacity="1" transform="matrix(1.2369799613952637,0,0,1.2369799613952637,-211.2989959716797,-157.36099243164062)"><path fill="rgb(20,124,169)" fill-opacity="1" d=" M0,-15.388500213623047 C8.492913246154785,-15.388500213623047 15.388500213623047,-8.492913246154785 15.388500213623047,0 C15.388500213623047,8.492913246154785 8.492913246154785,15.388500213623047 0,15.388500213623047 C-8.492913246154785,15.388500213623047 -15.388500213623047,8.492913246154785 -15.388500213623047,0 C-15.388500213623047,-8.492913246154785 -8.492913246154785,-15.388500213623047 0,-15.388500213623047z"></path></g><g opacity="1" transform="matrix(1,0,0,1,-11.875,32.8120002746582)"><path fill="rgb(20,124,169)" fill-opacity="1" d=" M-165,-180.5 C-165,-180.5 -145.093994140625,-180.5 -130.9199981689453,-180.5"></path><path stroke-linecap="round" stroke-linejoin="round" fill-opacity="0" stroke="rgb(20,124,169)" stroke-opacity="1" stroke-width="8" d=" M-165,-180.5 C-165,-180.5 -145.093994140625,-180.5 -130.9199981689453,-180.5"></path></g><g opacity="1" transform="matrix(1,0,0,1,-10,2.5)"><path fill="rgb(20,124,169)" fill-opacity="1" d=" M-166,-168 C-166,-168 -117.53099822998047,-168 -83.01899719238281,-168"></path><path stroke-linecap="round" stroke-linejoin="round" fill-opacity="0" stroke="rgb(20,124,169)" stroke-opacity="1" stroke-width="10" d=" M-166,-168 C-166,-168 -117.53099822998047,-168 -83.01899719238281,-168"></path></g></g></g><g clip-path="url(#__lottie_element_42031)" transform="matrix(0.4399953782558441,0,0,0.4399953782558441,327.6016845703125,287.6016845703125)" opacity="1" style="display: block;"><g transform="matrix(1,0,0,1,244.53399658203125,194.54800415039062)" opacity="1" style="display: block;"><g opacity="1" transform="matrix(1,0,0,1,129.302001953125,114.4010009765625)"><path fill="rgb(54,204,0)" fill-opacity="1" d=" M-87.59700012207031,-19.224000930786133 C-77.64099884033203,-65.36199951171875 -51.99300003051758,-91.8499984741211 7.156000137329102,-91.1240005493164 C58.28099822998047,-90.49700164794922 97.5530014038086,-54.29999923706055 76.78700256347656,16.25200080871582 C63.46200180053711,61.527000427246094 21.961000442504883,91.8499984741211 -23.43199920654297,82.0530014038086 C-68.82599639892578,72.25700378417969 -97.5530014038086,26.913999557495117 -87.59700012207031,-19.224000930786133z"></path><path stroke-linecap="butt" stroke-linejoin="miter" fill-opacity="0" stroke-miterlimit="10" stroke="rgb(0,133,35)" stroke-opacity="1" stroke-width="3" d=" M-87.59700012207031,-19.224000930786133 C-77.64099884033203,-65.36199951171875 -51.99300003051758,-91.8499984741211 7.156000137329102,-91.1240005493164 C58.28099822998047,-90.49700164794922 97.5530014038086,-54.29999923706055 76.78700256347656,16.25200080871582 C63.46200180053711,61.527000427246094 21.961000442504883,91.8499984741211 -23.43199920654297,82.0530014038086 C-68.82599639892578,72.25700378417969 -97.5530014038086,26.913999557495117 -87.59700012207031,-19.224000930786133z"></path></g><g opacity="1" transform="matrix(1,0,0,1,121.63999938964844,104.4219970703125)"><path fill="rgb(108,217,61)" fill-opacity="1" d=" M-90.23600006103516,-3.072000026702881 C-88.40699768066406,-27.707000732421875 -84.05000305175781,-45.880001068115234 -66.47599792480469,-63.452999114990234 C-43.09600067138672,-86.83300018310547 -10.074999809265137,-96.9219970703125 6.308000087738037,-78.14700317382812 C15.338000297546387,-67.79900360107422 14.241000175476074,-39.00400161743164 41.47200012207031,-47.09199905395508 C67.33000183105469,-54.770999908447266 93.89399719238281,-22.871999740600586 91.39299774169922,10.822999954223633 C87.73500061035156,60.09199905395508 42.87099838256836,96.9219970703125 -8.814000129699707,93.08599853515625 C-60.5,89.2490005493164 -93.89299774169922,46.198001861572266 -90.23600006103516,-3.072000026702881z"></path><path stroke-linecap="butt" stroke-linejoin="miter" fill-opacity="0" stroke-miterlimit="10" stroke="rgb(0,152,74)" stroke-opacity="1" stroke-width="3" d=" M-90.23600006103516,-3.072000026702881 C-88.40699768066406,-27.707000732421875 -84.05000305175781,-45.880001068115234 -66.47599792480469,-63.452999114990234 C-43.09600067138672,-86.83300018310547 -10.074999809265137,-96.9219970703125 6.308000087738037,-78.14700317382812 C15.338000297546387,-67.79900360107422 14.241000175476074,-39.00400161743164 41.47200012207031,-47.09199905395508 C67.33000183105469,-54.770999908447266 93.89399719238281,-22.871999740600586 91.39299774169922,10.822999954223633 C87.73500061035156,60.09199905395508 42.87099838256836,96.9219970703125 -8.814000129699707,93.08599853515625 C-60.5,89.2490005493164 -93.89299774169922,46.198001861572266 -90.23600006103516,-3.072000026702881z"></path></g><g opacity="1" transform="matrix(1,0,0,1,84.83300018310547,77.16300201416016)"><path fill="rgb(114,240,60)" fill-opacity="1" d=" M-19.29400062561035,-14.677000045776367 C-9.567000389099121,-27.464000701904297 6.955999851226807,-31.259000778198242 17.61199951171875,-23.152999877929688 C28.26799964904785,-15.04699993133545 29.020999908447266,1.8899999856948853 19.29400062561035,14.677000045776367 C9.567000389099121,27.464000701904297 -6.955999851226807,31.259000778198242 -17.61199951171875,23.152999877929688 C-28.26799964904785,15.04699993133545 -29.020999908447266,-1.8899999856948853 -19.29400062561035,-14.677000045776367z"></path></g><g opacity="1" transform="matrix(1,0,0,1,165.33700561523438,105.6780014038086)"><path fill="rgb(114,240,60)" fill-opacity="1" d=" M-23.607999801635742,-6.519999980926514 C-19.44300079345703,-21.600000381469727 -5.497000217437744,-30.905000686645508 7.541999816894531,-27.304000854492188 C20.579999923706055,-23.702999114990234 27.773000717163086,-8.559000015258789 23.607999801635742,6.520999908447266 C19.44300079345703,21.60099983215332 5.497000217437744,30.9060001373291 -7.541999816894531,27.30500030517578 C-20.579999923706055,23.70400047302246 -27.773000717163086,8.5600004196167 -23.607999801635742,-6.519999980926514z"></path></g><g opacity="1" transform="matrix(1,0,0,1,171.677001953125,143.33599853515625)"><path fill="rgb(0,166,44)" fill-opacity="1" d=" M-45.15399932861328,77.74600219726562 C-74.10900115966797,59.53099822998047 -77.0780029296875,26.898000717163086 -65.47699737548828,4.269000053405762 C-58.51599884033203,-9.307999610900879 -45.71799850463867,-20.145000457763672 -28.475000381469727,-24.514999389648438 C-16.363000869750977,-27.583999633789062 -23.184999465942383,-40.08300018310547 -13.456000328063965,-52.97600173950195 C-2.1500000953674316,-67.95600128173828 16.336999893188477,-59.29800033569336 21.94300079345703,-67.58899688720703 C32.99599838256836,-83.93599700927734 40.26300048828125,-94.02899932861328 54.42100143432617,-74.15899658203125 C77.0780029296875,-42.36399841308594 76.91300201416016,5.114999771118164 59.07899856567383,37.606998443603516 C36.25699996948242,79.18900299072266 -19.270999908447266,94.02899932861328 -45.15399932861328,77.74600219726562z"></path></g><g opacity="1" transform="matrix(1,0,0,1,181.93699645996094,143.33599853515625)"><path fill="rgb(0,133,35)" fill-opacity="1" d=" M-55.41400146484375,77.74600219726562 C-66.81900024414062,69.13899993896484 -50.97100067138672,50.79499816894531 -35.797000885009766,41.513999938964844 C-14.541999816894531,28.513999938964844 -2.7239999771118164,15.090999603271484 5.540999889373779,1.2139999866485596 C18.608999252319336,-20.72599983215332 24.625999450683594,-40.48500061035156 27.31999969482422,-55.78799819946289 C30.740999221801758,-75.2229995727539 30.003999710083008,-94.02899932861328 44.1619987487793,-74.15899658203125 C66.81900024414062,-42.36399841308594 66.65299987792969,5.114999771118164 48.819000244140625,37.606998443603516 C25.996999740600586,79.18900299072266 -29.5310001373291,94.02899932861328 -55.41400146484375,77.74600219726562z"></path></g><g opacity="1" transform="matrix(1,0,0,1,164.61300659179688,155.83200073242188)"><path stroke-linecap="round" stroke-linejoin="miter" fill-opacity="0" stroke-miterlimit="10" stroke="rgb(10,201,58)" stroke-opacity="1" stroke-width="8" d=" M-40.68299865722656,62.45199966430664 C-40.68299865722656,62.45199966430664 -43.49399948120117,42.983001708984375 -22.42300033569336,31.632999420166016 C11.416999816894531,13.406000137329102 18.117000579833984,1.8289999961853027 25.798999786376953,-12.166999816894531 C35.95500183105469,-30.670000076293945 43.49399948120117,-62.45199966430664 43.49399948120117,-62.45199966430664"></path></g><g opacity="1" transform="matrix(1,0,0,1,199.4429931640625,133.2220001220703)"><path stroke-linecap="round" stroke-linejoin="miter" fill-opacity="0" stroke-miterlimit="10" stroke="rgb(10,201,58)" stroke-opacity="1" stroke-width="8" d=" M-21.04400062561035,-26.55299949645996 C-21.04400062561035,-26.55299949645996 -16.381999969482422,-6.044000148773193 -14.782999992370605,9.652000427246094 C-13.060999870300293,26.55299949645996 -5.2129998207092285,8.807000160217285 21.04400062561035,-6.999000072479248"></path></g><g opacity="1" transform="matrix(1,0,0,1,168.28799438476562,164.1269989013672)"><path stroke-linecap="round" stroke-linejoin="miter" fill-opacity="0" stroke-miterlimit="10" stroke="rgb(10,201,58)" stroke-opacity="1" stroke-width="8" d=" M-19.243000030517578,-31.79400062561035 C-19.243000030517578,-31.79400062561035 -4.511000156402588,-6.131999969482422 -19.670000076293945,16.854999542236328 C-29.52199935913086,31.79400062561035 -14.12399959564209,14.621999740600586 29.52199935913086,20.51099967956543"></path></g><g opacity="1" transform="matrix(1,0,0,1,77.28199768066406,143.33599853515625)"><path fill="rgb(10,201,58)" fill-opacity="1" d=" M45.04100036621094,77.81999969482422 C74.0199966430664,59.643001556396484 77.03199768066406,27.013999938964844 65.46099853515625,4.369999885559082 C58.51900100708008,-9.215999603271484 45.733001708984375,-20.06999969482422 28.496999740600586,-24.46299934387207 C16.388999938964844,-27.54800033569336 23.22800064086914,-40.03799819946289 13.515999794006348,-52.944000244140625 C2.2309999465942383,-67.93900299072266 -16.26799964904785,-59.305999755859375 -21.863000869750977,-67.60399627685547 C-32.89500045776367,-83.96600341796875 -40.14899826049805,-94.06800079345703 -54.33399963378906,-74.21700286865234 C-77.03199768066406,-42.45199966430664 -76.93000030517578,5.0269999504089355 -59.138999938964844,37.542999267578125 C-36.37200164794922,79.15499877929688 19.136999130249023,94.06800079345703 45.04100036621094,77.81999969482422z"></path></g><g opacity="1" transform="matrix(1,0,0,1,66.99500274658203,143.33599853515625)"><path fill="rgb(0,166,44)" fill-opacity="1" d=" M55.327999114990234,77.81999969482422 C66.74500274658203,69.22799682617188 50.92100143432617,50.862998962402344 35.75899887084961,41.5620002746582 C14.520999908447266,28.534000396728516 2.7219998836517334,15.095000267028809 -5.526000022888184,1.2070000171661377 C-18.565000534057617,-20.75 -24.55500030517578,-40.516998291015625 -27.229000091552734,-55.82400131225586 C-30.624000549316406,-75.26300048828125 -29.86199951171875,-94.06800079345703 -44.047000885009766,-74.21700286865234 C-66.74500274658203,-42.45199966430664 -66.64299774169922,5.0269999504089355 -48.85200119018555,37.542999267578125 C-26.084999084472656,79.15499877929688 29.423999786376953,94.06800079345703 55.327999114990234,77.81999969482422z"></path></g><g opacity="1" transform="matrix(1,0,0,1,84.33200073242188,155.85299682617188)"><path stroke-linecap="round" stroke-linejoin="miter" fill-opacity="0" stroke-miterlimit="10" stroke="rgb(9,140,0)" stroke-opacity="1" stroke-width="8" d=" M40.58700180053711,62.507999420166016 C40.58700180053711,62.507999420166016 43.42399978637695,43.042999267578125 22.367000579833984,31.665000915527344 C-11.447999954223633,13.392999649047852 -18.132999420166016,1.8070000410079956 -25.79599952697754,-12.199000358581543 C-35.928001403808594,-30.715999603271484 -43.42399978637695,-62.507999420166016 -43.42399978637695,-62.507999420166016"></path></g><g opacity="1" transform="matrix(1,0,0,1,49.54199981689453,132.07200622558594)"><path stroke-linecap="round" stroke-linejoin="miter" fill-opacity="0" stroke-miterlimit="10" stroke="rgb(9,140,0)" stroke-opacity="1" stroke-width="8" d=" M21.055999755859375,-25.398000717163086 C21.055999755859375,-25.398000717163086 15.62399959564209,-3.23799991607666 14.619999885559082,10.800999641418457 C13.574999809265137,25.39699935913086 5.181000232696533,16.854999542236328 -21.055999755859375,1.0140000581741333"></path></g><g opacity="1" transform="matrix(1,0,0,1,84.5469970703125,165.33299255371094)"><path stroke-linecap="round" stroke-linejoin="miter" fill-opacity="0" stroke-miterlimit="10" stroke="rgb(9,140,0)" stroke-opacity="1" stroke-width="8" d=" M20.464000701904297,-32.24700164794922 C20.464000701904297,-32.24700164794922 1.8899999856948853,-2.3480000495910645 21.400999069213867,19.030000686645508 C33.4640007019043,32.24700164794922 10.1899995803833,13.454000473022461 -33.4640007019043,19.284000396728516"></path></g></g><g transform="matrix(1,0,0,1,141.77899169921875,283.27801513671875)" opacity="1" style="display: block;"><g opacity="1" transform="matrix(1,0,0,1,61.948001861572266,33.9370002746582)"><path fill="rgb(0,143,69)" fill-opacity="1" d=" M-4.823999881744385,16.211999893188477 C5.7729997634887695,23.937000274658203 21.738000869750977,23.219999313354492 28.42099952697754,15.451000213623047 C38.93600082397461,3.2279999256134033 25.325000762939453,-14.90999984741211 8.720999717712402,-17.868000030517578 C-25.349000930786133,-23.937000274658203 -38.93600082397461,-6.86899995803833 -36.487998962402344,-6.204999923706055 C-22.257999420166016,-2.3429999351501465 -16.780000686645508,7.495999813079834 -4.823999881744385,16.211999893188477z"></path><path stroke-linecap="butt" stroke-linejoin="miter" fill-opacity="0" stroke-miterlimit="10" stroke="rgb(0,99,48)" stroke-opacity="1" stroke-width="4" d=" M-4.823999881744385,16.211999893188477 C5.7729997634887695,23.937000274658203 21.738000869750977,23.219999313354492 28.42099952697754,15.451000213623047 C38.93600082397461,3.2279999256134033 25.325000762939453,-14.90999984741211 8.720999717712402,-17.868000030517578 C-25.349000930786133,-23.937000274658203 -38.93600082397461,-6.86899995803833 -36.487998962402344,-6.204999923706055 C-22.257999420166016,-2.3429999351501465 -16.780000686645508,7.495999813079834 -4.823999881744385,16.211999893188477z"></path></g><g opacity="1" transform="matrix(1,0,0,1,73.5479965209961,40.375999450683594)"><path stroke-linecap="round" stroke-linejoin="miter" fill-opacity="0" stroke-miterlimit="10" stroke="rgb(0,99,48)" stroke-opacity="1" stroke-width="4" d=" M-21.02400016784668,-14.307000160217285 C0.6589999794960022,-11.430000305175781 18.21500015258789,2.2009999752044678 21.02400016784668,14.307000160217285"></path></g><g opacity="1" transform="matrix(1,0,0,1,92.50900268554688,76.72100067138672)"><path stroke-linecap="round" stroke-linejoin="miter" fill-opacity="0" stroke-miterlimit="10" stroke="rgb(0,99,48)" stroke-opacity="1" stroke-width="8" d=" M-20.190000534057617,28.19300079345703 C-19.099000930786133,26.006999969482422 20.190000534057617,18.624000549316406 0.23499999940395355,-28.19300079345703"></path></g><g opacity="1" transform="matrix(1,0,0,1,98.46800231933594,148.7550048828125)"><path fill="rgb(194,33,33)" fill-opacity="1" d=" M-20.902000427246094,80.0790023803711 C-50.50299835205078,80.08200073242188 -78.64099884033203,52.323001861572266 -87.80799865722656,14.074000358581543 C-98.21800231933594,-29.384000778198242 -80.33599853515625,-71.05599975585938 -47.946998596191406,-78.81900024414062 C-44.44900131225586,-79.65699768066406 -40.84400177001953,-80.08200073242188 -37.23400115966797,-80.08200073242188 C-24.65399932861328,-80.08200073242188 -12.08899974822998,-75.09600067138672 -0.8029999732971191,-65.64399719238281 C11.175000190734863,-74.99099731445312 24.551000595092773,-79.9219970703125 37.97700119018555,-79.9219970703125 C42.94599914550781,-79.9219970703125 47.87300109863281,-79.2249984741211 52.62099838256836,-77.8499984741211 C69.30400085449219,-73.0199966430664 82.5979995727539,-60.33000183105469 90.05599975585938,-42.11800003051758 C97.44999694824219,-24.066999435424805 98.21800231933594,-2.7190001010894775 92.22100067138672,17.992000579833984 C81.66300201416016,54.45600128173828 52.862998962402344,79.92400360107422 22.18400001525879,79.92400360107422 C17.215999603271484,79.92400360107422 12.288000106811523,79.22599792480469 7.539999961853027,77.85099792480469 C4.9670000076293945,77.10399627685547 2.446000099182129,76.16000366210938 0.028999999165534973,75.04000091552734 C-3.2170000076293945,76.7020034790039 -6.6479997634887695,77.97100067138672 -10.184000015258789,78.81500244140625 C-13.682000160217285,79.65299987792969 -17.288000106811523,80.0790023803711 -20.902000427246094,80.0790023803711z"></path></g><g opacity="1" transform="matrix(1,0,0,1,101.6729965209961,148.75399780273438)"><path fill="rgb(0,0,0)" fill-opacity="1" d=" M-40.4379997253418,-78.08000183105469 C-27.656999588012695,-78.08000183105469 -14.958999633789062,-72.58899688720703 -4.052999973297119,-63.04800033569336 C7.578000068664551,-72.5199966430664 21.14299964904785,-77.91999816894531 34.77199935913086,-77.91999816894531 C39.48699951171875,-77.9209976196289 44.20800018310547,-77.2750015258789 48.861000061035156,-75.9280014038086 C82.11399841308594,-66.30000305175781 99.23699951171875,-24.493000030517578 87.09500122070312,17.437999725341797 C76.6520004272461,53.505001068115234 47.95899963378906,77.9260025024414 18.979999542236328,77.9260025024414 C14.263999938964844,77.9260025024414 9.545999526977539,77.27999877929688 4.892000198364258,75.93299865722656 C2.069000005722046,75.11299896240234 -0.6359999775886536,74.06700134277344 -3.2209999561309814,72.80699920654297 C-6.543000221252441,74.60099792480469 -10.097999572753906,75.9739990234375 -13.854000091552734,76.87200164794922 C-17.253999710083008,77.68699645996094 -20.684999465942383,78.08100128173828 -24.10700035095215,78.08100128173828 C-52.25,78.08100128173828 -79.99600219726562,51.46200180053711 -89.06800079345703,13.609999656677246 C-99.23699951171875,-28.843000411987305 -82.05400085449219,-69.35399627685547 -50.685001373291016,-76.87200164794922 C-47.2859992980957,-77.68599700927734 -43.858001708984375,-78.08000183105469 -40.4379997253418,-78.08000183105469z M-40.4379997253418,-82.08000183105469 C-44.20600128173828,-82.08000183105469 -47.96699905395508,-81.63700103759766 -51.617000579833984,-80.76200103759766 C-68.05400085449219,-76.822998046875 -81.37799835205078,-64.58100128173828 -89.13600158691406,-46.29399871826172 C-96.71700286865234,-28.422000885009766 -98.0739974975586,-6.816999912261963 -92.95800018310547,14.541999816894531 C-83.5780029296875,53.676998138427734 -54.62200164794922,82.08100128173828 -24.10700035095215,82.08100128173828 C-20.336999893188477,82.08100128173828 -16.573999404907227,81.63700103759766 -12.92199993133545,80.76200103759766 C-9.54699993133545,79.95500183105469 -6.263000011444092,78.77899932861328 -3.134000062942505,77.25700378417969 C-0.8960000276565552,78.24500274658203 1.4199999570846558,79.08999633789062 3.7760000228881836,79.77400207519531 C8.708000183105469,81.2020034790039 13.821999549865723,81.9260025024414 18.979999542236328,81.9260025024414 C34.10300064086914,81.9260025024414 49.604000091552734,75.63600158691406 62.625999450683594,64.21399688720703 C75.85800170898438,52.60900115966797 85.64800262451172,36.819000244140625 90.93699645996094,18.549999237060547 C97.05999755859375,-2.5920000076293945 96.26599884033203,-24.4060001373291 88.7030029296875,-42.874000549316406 C81.00800323486328,-61.66299819946289 67.25399780273438,-74.76599884033203 49.972999572753906,-79.76899719238281 C45.04399871826172,-81.1969985961914 39.93000030517578,-81.91999816894531 34.77299880981445,-81.91999816894531 C21.371000289916992,-81.91999816894531 8.041000366210938,-77.18499755859375 -3.9639999866485596,-68.19200134277344 C-15.293999671936035,-77.29100036621094 -27.843000411987305,-82.08000183105469 -40.4379997253418,-82.08000183105469z"></path></g><g opacity="1" transform="matrix(1,0,0,1,81.61299896240234,149.9219970703125)"><path fill="rgb(219,59,59)" fill-opacity="1" d=" M24.951000213623047,74.76499938964844 C22.128000259399414,73.94499969482422 19.423999786376953,72.89900207519531 16.83799934387207,71.63899993896484 C13.515999794006348,73.43399810791016 9.961999893188477,74.80699920654297 6.205999851226807,75.7040023803711 C-25.163999557495117,83.22200012207031 -58.83300018310547,54.895999908447266 -69.00800323486328,12.442000389099121 C-79.177001953125,-30.01099967956543 -61.994998931884766,-70.52200317382812 -30.625999450683594,-78.04000091552734 C-14.524999618530273,-81.89700317382812 2.181999921798706,-76.30999755859375 16.006000518798828,-64.21600341796875 C43.72600173950195,-84.39199829101562 70.66999816894531,-56.058998107910156 74.86399841308594,-22.416000366210938 C79.177001953125,12.1850004196167 58.20399856567383,84.39299774169922 24.951000213623047,74.76499938964844z"></path></g><g opacity="1" transform="matrix(1,0,0,1,45.81700134277344,104.91400146484375)"><path fill="rgb(255,84,84)" fill-opacity="1" d=" M-6.776000022888184,-4.296999931335449 C-2.556999921798706,-10.949999809265137 3.8959999084472656,-14.420000076293945 7.638999938964844,-12.04699993133545 C11.380999565124512,-9.673999786376953 10.994999885559082,-2.3570001125335693 6.7769999504089355,4.296000003814697 C2.558000087738037,10.949000358581543 -3.8959999084472656,14.418999671936035 -7.638000011444092,12.045999526977539 C-11.380999565124512,9.67300033569336 -10.994999885559082,2.3559999465942383 -6.776000022888184,-4.296999931335449z"></path></g></g><g transform="matrix(1,0,0,1,256.51800537109375,334.2610168457031)" opacity="1" style="display: block;"><g opacity="1" transform="matrix(1,0,0,1,162.40499877929688,77.3280029296875)"><path fill="rgb(255,181,33)" fill-opacity="1" d=" M-145.8249969482422,5.019999980926514 C-141.072998046875,14.312000274658203 -63.33399963378906,67.3290023803711 3.930000066757202,58.650001525878906 C90.89299774169922,47.43000030517578 106.91500091552734,2.046999931335449 106.73500061035156,-8.491000175476074 C106.55799865722656,-18.783000946044922 104.48100280761719,-19.91200065612793 116.41000366210938,-26.197999954223633 C152.40499877929688,-45.167999267578125 144.9969940185547,-55.29399871826172 137.95599365234375,-61.33100128173828 C134.07400512695312,-64.65899658203125 126.8010025024414,-67.3280029296875 120.44000244140625,-59.138999938964844 C119.01100158691406,-57.29899978637695 117.38500213623047,-55.428001403808594 115.58899688720703,-53.70600128173828 C114.99299621582031,-53.1349983215332 114.35700225830078,-52.55799865722656 113.69100189208984,-51.97999954223633 C103.6969985961914,-43.3129997253418 94.84600067138672,-32.54999923706055 83.697998046875,-39.6609992980957 C68.73400115966797,-49.20500183105469 44.08300018310547,-35.939998626708984 7.951000213623047,-18.753999710083008 C-42.36199951171875,5.177000045776367 -118.26000213623047,-12.618000030517578 -128.92799377441406,-16.211000442504883 C-139.59500122070312,-19.804000854492188 -152.40499877929688,-7.84499979019165 -145.8249969482422,5.019999980926514z"></path><path stroke-linecap="butt" stroke-linejoin="miter" fill-opacity="0" stroke-miterlimit="10" stroke="rgb(69,31,0)" stroke-opacity="1" stroke-width="4" d=" M-145.8249969482422,5.019999980926514 C-141.072998046875,14.312000274658203 -63.33399963378906,67.3290023803711 3.930000066757202,58.650001525878906 C90.89299774169922,47.43000030517578 106.91500091552734,2.046999931335449 106.73500061035156,-8.491000175476074 C106.55799865722656,-18.783000946044922 104.48100280761719,-19.91200065612793 116.41000366210938,-26.197999954223633 C152.40499877929688,-45.167999267578125 144.9969940185547,-55.29399871826172 137.95599365234375,-61.33100128173828 C134.07400512695312,-64.65899658203125 126.8010025024414,-67.3280029296875 120.44000244140625,-59.138999938964844 C119.01100158691406,-57.29899978637695 117.38500213623047,-55.428001403808594 115.58899688720703,-53.70600128173828 C114.99299621582031,-53.1349983215332 114.35700225830078,-52.55799865722656 113.69100189208984,-51.97999954223633 C103.6969985961914,-43.3129997253418 94.84600067138672,-32.54999923706055 83.697998046875,-39.6609992980957 C68.73400115966797,-49.20500183105469 44.08300018310547,-35.939998626708984 7.951000213623047,-18.753999710083008 C-42.36199951171875,5.177000045776367 -118.26000213623047,-12.618000030517578 -128.92799377441406,-16.211000442504883 C-139.59500122070312,-19.804000854492188 -152.40499877929688,-7.84499979019165 -145.8249969482422,5.019999980926514z"></path></g><g opacity="1" transform="matrix(1,0,0,1,163.48199462890625,57.07400131225586)"><path fill="rgb(255,221,97)" fill-opacity="1" d=" M-136.1719970703125,20.81100082397461 C-122.68599700927734,26.64699935913086 -87.10800170898438,41.577999114990234 -35.52899932861328,43.632999420166016 C27.770000457763672,46.15399932861328 71.41100311279297,23.506999969482422 87.6050033569336,4.09499979019165 C107.11299896240234,-19.290000915527344 149.427001953125,-36.944000244140625 134.61599731445312,-42.67100143432617 C129.2790069580078,-44.73400115966797 125.30400085449219,-46.15399932861328 119.36299896240234,-38.8849983215332 C117.88899993896484,-37.08100128173828 116.30799865722656,-35.17300033569336 114.51200103759766,-33.45199966430664 C113.91600036621094,-32.880001068115234 113.27999877929688,-32.30400085449219 112.61399841308594,-31.726999282836914 C102.62000274658203,-23.05900001525879 95.00199890136719,-15.491000175476074 82.97799682617188,-20.98900032043457 C58.722999572753906,-32.07899856567383 42.96200180053711,-16.518999099731445 3.003999948501587,-0.11599999666213989 C-48.5369987487793,21.04199981689453 -119.33699798583984,7.63700008392334 -130.00399780273438,4.044000148773193 C-140.6719970703125,0.45100000500679016 -149.427001953125,15.074000358581543 -136.1719970703125,20.81100082397461z"></path><path stroke-linecap="butt" stroke-linejoin="miter" fill-opacity="0" stroke-miterlimit="10" stroke="rgb(69,31,0)" stroke-opacity="1" stroke-width="4" d=" M-136.1719970703125,20.81100082397461 C-122.68599700927734,26.64699935913086 -87.10800170898438,41.577999114990234 -35.52899932861328,43.632999420166016 C27.770000457763672,46.15399932861328 71.41100311279297,23.506999969482422 87.6050033569336,4.09499979019165 C107.11299896240234,-19.290000915527344 149.427001953125,-36.944000244140625 134.61599731445312,-42.67100143432617 C129.2790069580078,-44.73400115966797 125.30400085449219,-46.15399932861328 119.36299896240234,-38.8849983215332 C117.88899993896484,-37.08100128173828 116.30799865722656,-35.17300033569336 114.51200103759766,-33.45199966430664 C113.91600036621094,-32.880001068115234 113.27999877929688,-32.30400085449219 112.61399841308594,-31.726999282836914 C102.62000274658203,-23.05900001525879 95.00199890136719,-15.491000175476074 82.97799682617188,-20.98900032043457 C58.722999572753906,-32.07899856567383 42.96200180053711,-16.518999099731445 3.003999948501587,-0.11599999666213989 C-48.5369987487793,21.04199981689453 -119.33699798583984,7.63700008392334 -130.00399780273438,4.044000148773193 C-140.6719970703125,0.45100000500679016 -149.427001953125,15.074000358581543 -136.1719970703125,20.81100082397461z"></path></g><g opacity="1" transform="matrix(1,0,0,1,294.96099853515625,24.216999053955078)"><path fill="rgb(69,31,0)" fill-opacity="1" d=" M9.847999572753906,6.678999900817871 C13.604999542236328,0.296999990940094 8.98900032043457,-5.2829999923706055 5.400000095367432,-8.220000267028809 C0.2879999876022339,-12.404000282287598 -4.460000038146973,-12.034000396728516 -7.230000019073486,-10.458999633789062 C-13.604999542236328,-6.833000183105469 6.4770002365112305,12.404000282287598 9.847999572753906,6.678999900817871z"></path><path stroke-linecap="butt" stroke-linejoin="miter" fill-opacity="0" stroke-miterlimit="10" stroke="rgb(69,31,0)" stroke-opacity="1" stroke-width="3" d=" M9.847999572753906,6.678999900817871 C13.604999542236328,0.296999990940094 8.98900032043457,-5.2829999923706055 5.400000095367432,-8.220000267028809 C0.2879999876022339,-12.404000282287598 -4.460000038146973,-12.034000396728516 -7.230000019073486,-10.458999633789062 C-13.604999542236328,-6.833000183105469 6.4770002365112305,12.404000282287598 9.847999572753906,6.678999900817871z"></path></g><g opacity="1" transform="matrix(1,0,0,1,24.62299919128418,70.87200164794922)"><path fill="rgb(69,31,0)" fill-opacity="1" d=" M-8.043000221252441,11.47599983215332 C-7.085999965667725,13.347000122070312 -0.09700000286102295,9.586000442504883 2.687000036239624,7.013000011444092 C6.064000129699707,3.8919999599456787 14.623000144958496,-7.632999897003174 8.854000091552734,-9.753999710083008 C-1.812999963760376,-13.347000122070312 -14.623000144958496,-1.3890000581741333 -8.043000221252441,11.47599983215332z"></path><path stroke-linecap="butt" stroke-linejoin="miter" fill-opacity="0" stroke-miterlimit="10" stroke="rgb(69,31,0)" stroke-opacity="1" stroke-width="3" d=" M-8.043000221252441,11.47599983215332 C-7.085999965667725,13.347000122070312 -0.09700000286102295,9.586000442504883 2.687000036239624,7.013000011444092 C6.064000129699707,3.8919999599456787 14.623000144958496,-7.632999897003174 8.854000091552734,-9.753999710083008 C-1.812999963760376,-13.347000122070312 -14.623000144958496,-1.3890000581741333 -8.043000221252441,11.47599983215332z"></path></g><g opacity="1" transform="matrix(1,0,0,1,81.04499816894531,83.36299896240234)"><path fill="rgb(255,240,184)" fill-opacity="1" d=" M-5.769000053405762,-2.2750000953674316 C-5.093999862670898,-4.136000156402588 -1.7410000562667847,-4.625999927520752 1.718000054359436,-3.36899995803833 C5.177999973297119,-2.11299991607666 6.443999767303467,-0.3659999966621399 5.769000053405762,1.49399995803833 C5.093999862670898,3.3550000190734863 2.7320001125335693,4.625999927520752 -0.7269999980926514,3.36899995803833 C-4.186999797821045,2.11299991607666 -6.443999767303467,-0.414000004529953 -5.769000053405762,-2.2750000953674316z"></path></g><g opacity="1" transform="matrix(1,0,0,1,198.49099731445312,53.74599838256836)"><path fill="rgb(255,240,184)" fill-opacity="1" d=" M-6.775000095367432,4.2820000648498535 C-8.031000137329102,2.1029999256134033 -5.65500020980835,-1.6239999532699585 -1.468000054359436,-4.043000221252441 C2.7190001010894775,-6.460999965667725 5.51800012588501,-6.303999900817871 6.77400016784668,-4.125 C8.031000137329102,-1.9459999799728394 7.26800012588501,1.4290000200271606 3.0810000896453857,3.8480000495910645 C-1.1059999465942383,6.265999794006348 -5.519000053405762,6.460999965667725 -6.775000095367432,4.2820000648498535z"></path></g><g opacity="1" transform="matrix(1,0,0,1,170.57899475097656,93.69999694824219)"><path fill="rgb(255,181,33)" fill-opacity="1" d=" M-139.33599853515625,31.958999633789062 C-133.2259979248047,40.41999816894531 -48.33000183105469,81.0009994506836 16.83300018310547,62.19499969482422 C101.0780029296875,37.882999420166016 110.01399993896484,-9.409000396728516 108.23300170898438,-19.797000885009766 C106.49299621582031,-29.94300079345703 104.2699966430664,-30.740999221801758 115.10399627685547,-38.768001556396484 C147.79600524902344,-62.99100112915039 138.93499755859375,-71.8740005493164 131.05799865722656,-76.76899719238281 C126.71499633789062,-79.46900177001953 119.12100219726562,-81.0009994506836 114.0790023803711,-71.93900299072266 C112.94599914550781,-69.90399932861328 111.6240005493164,-67.80599975585938 110.11000061035156,-65.83100128173828 C109.60800170898438,-65.1760025024414 109.06700134277344,-64.51000213623047 108.49700164794922,-63.8380012512207 C99.93699645996094,-53.75199890136719 92.8239974975586,-41.768001556396484 80.7239990234375,-47.10100173950195 C64.48300170898438,-54.2599983215332 42.13600158691406,-37.39899826049805 9.038000106811523,-14.918999671936035 C-37.051998138427734,16.384000778198242 -114.77300262451172,10.336000442504883 -125.86299896240234,8.406999588012695 C-136.9530029296875,6.478000164031982 -147.79600524902344,20.243999481201172 -139.33599853515625,31.958999633789062z"></path><path stroke-linecap="butt" stroke-linejoin="miter" fill-opacity="0" stroke-miterlimit="10" stroke="rgb(69,31,0)" stroke-opacity="1" stroke-width="4" d=" M-139.33599853515625,31.958999633789062 C-133.2259979248047,40.41999816894531 -48.33000183105469,81.0009994506836 16.83300018310547,62.19499969482422 C101.0780029296875,37.882999420166016 110.01399993896484,-9.409000396728516 108.23300170898438,-19.797000885009766 C106.49299621582031,-29.94300079345703 104.2699966430664,-30.740999221801758 115.10399627685547,-38.768001556396484 C147.79600524902344,-62.99100112915039 138.93499755859375,-71.8740005493164 131.05799865722656,-76.76899719238281 C126.71499633789062,-79.46900177001953 119.12100219726562,-81.0009994506836 114.0790023803711,-71.93900299072266 C112.94599914550781,-69.90399932861328 111.6240005493164,-67.80599975585938 110.11000061035156,-65.83100128173828 C109.60800170898438,-65.1760025024414 109.06700134277344,-64.51000213623047 108.49700164794922,-63.8380012512207 C99.93699645996094,-53.75199890136719 92.8239974975586,-41.768001556396484 80.7239990234375,-47.10100173950195 C64.48300170898438,-54.2599983215332 42.13600158691406,-37.39899826049805 9.038000106811523,-14.918999671936035 C-37.051998138427734,16.384000778198242 -114.77300262451172,10.336000442504883 -125.86299896240234,8.406999588012695 C-136.9530029296875,6.478000164031982 -147.79600524902344,20.243999481201172 -139.33599853515625,31.958999633789062z"></path></g><g opacity="1" transform="matrix(1,0,0,1,170.93099975585938,73.1780014038086)"><path fill="rgb(255,221,97)" fill-opacity="1" d=" M-129.76100158691406,46.43899917602539 C-115.54499816894531,50.15700149536133 -78.11000061035156,59.505001068115234 -26.81800079345703,53.69300079345703 C36.12799835205078,46.560001373291016 75.81800079345703,17.541000366210938 88.87200164794922,-4.107999801635742 C104.5979995727539,-30.187000274658203 143.73500061035156,-54.06999969482422 128.2259979248047,-57.47800064086914 C122.63700103759766,-58.70600128173828 118.49299621582031,-59.505001068115234 113.72599792480469,-51.41699981689453 C112.54399871826172,-49.40999984741211 111.27100372314453,-47.284000396728516 109.75700378417969,-45.308998107910156 C109.25499725341797,-44.65399932861328 108.71499633789062,-43.987998962402344 108.14399719238281,-43.316001892089844 C99.58399963378906,-33.22999954223633 93.20600128173828,-24.591999053955078 80.48500061035156,-28.19700050354004 C54.82600021362305,-35.470001220703125 41.61399841308594,-17.694000244140625 4.614999771118164,4.593999862670898 C-43.11000061035156,33.34199905395508 -115.125,30.857999801635742 -126.21499633789062,28.929000854492188 C-137.30499267578125,27 -143.73500061035156,42.784000396728516 -129.76100158691406,46.43899917602539z"></path><path stroke-linecap="butt" stroke-linejoin="miter" fill-opacity="0" stroke-miterlimit="10" stroke="rgb(69,31,0)" stroke-opacity="1" stroke-width="4" d=" M-129.76100158691406,46.43899917602539 C-115.54499816894531,50.15700149536133 -78.11000061035156,59.505001068115234 -26.81800079345703,53.69300079345703 C36.12799835205078,46.560001373291016 75.81800079345703,17.541000366210938 88.87200164794922,-4.107999801635742 C104.5979995727539,-30.187000274658203 143.73500061035156,-54.06999969482422 128.2259979248047,-57.47800064086914 C122.63700103759766,-58.70600128173828 118.49299621582031,-59.505001068115234 113.72599792480469,-51.41699981689453 C112.54399871826172,-49.40999984741211 111.27100372314453,-47.284000396728516 109.75700378417969,-45.308998107910156 C109.25499725341797,-44.65399932861328 108.71499633789062,-43.987998962402344 108.14399719238281,-43.316001892089844 C99.58399963378906,-33.22999954223633 93.20600128173828,-24.591999053955078 80.48500061035156,-28.19700050354004 C54.82600021362305,-35.470001220703125 41.61399841308594,-17.694000244140625 4.614999771118164,4.593999862670898 C-43.11000061035156,33.34199905395508 -115.125,30.857999801635742 -126.21499633789062,28.929000854492188 C-137.30499267578125,27 -143.73500061035156,42.784000396728516 -129.76100158691406,46.43899917602539z"></path></g><g opacity="1" transform="matrix(1,0,0,1,297.0509948730469,25.36199951171875)"><path fill="rgb(69,31,0)" fill-opacity="1" d=" M11.246999740600586,5.618000030517578 C13.989999771118164,-1.2610000371932983 8.579000473022461,-6.073999881744385 4.585999965667725,-8.430999755859375 C-1.1039999723434448,-11.788999557495117 -5.741000175476074,-10.70199966430664 -8.239999771118164,-8.723999977111816 C-13.989999771118164,-4.171000003814697 8.78600025177002,11.788999557495117 11.246999740600586,5.618000030517578z"></path><path stroke-linecap="butt" stroke-linejoin="miter" fill-opacity="0" stroke-miterlimit="10" stroke="rgb(69,31,0)" stroke-opacity="1" stroke-width="3" d=" M11.246999740600586,5.618000030517578 C13.989999771118164,-1.2610000371932983 8.579000473022461,-6.073999881744385 4.585999965667725,-8.430999755859375 C-1.1039999723434448,-11.788999557495117 -5.741000175476074,-10.70199966430664 -8.239999771118164,-8.723999977111816 C-13.989999771118164,-4.171000003814697 8.78600025177002,11.788999557495117 11.246999740600586,5.618000030517578z"></path></g><g opacity="1" transform="matrix(1,0,0,1,36.76100158691406,113.7699966430664)"><path fill="rgb(69,31,0)" fill-opacity="1" d=" M-5.51800012588501,11.887999534606934 C-4.288000106811523,13.592000007629395 2.0480000972747803,8.812000274658203 4.408999919891357,5.8460001945495605 C7.271999835968018,2.246999979019165 13.977999687194824,-10.444999694824219 7.954999923706055,-11.663999557495117 C-3.134999990463257,-13.593000411987305 -13.977999687194824,0.17299999296665192 -5.51800012588501,11.887999534606934z"></path><path stroke-linecap="butt" stroke-linejoin="miter" fill-opacity="0" stroke-miterlimit="10" stroke="rgb(69,31,0)" stroke-opacity="1" stroke-width="3" d=" M-5.51800012588501,11.887999534606934 C-4.288000106811523,13.592000007629395 2.0480000972747803,8.812000274658203 4.408999919891357,5.8460001945495605 C7.271999835968018,2.246999979019165 13.977999687194824,-10.444999694824219 7.954999923706055,-11.663999557495117 C-3.134999990463257,-13.593000411987305 -13.977999687194824,0.17299999296665192 -5.51800012588501,11.887999534606934z"></path></g><g opacity="1" transform="matrix(1,0,0,1,106.3499984741211,114.49299621582031)"><path fill="rgb(255,240,184)" fill-opacity="1" d=" M-7.5289998054504395,0.4519999921321869 C-7.664000034332275,-2.009000062942505 -4.063000202178955,-4.205999851226807 0.5139999985694885,-4.455999851226807 C5.091000080108643,-4.705999851226807 7.394000053405762,-3.325000047683716 7.5289998054504395,-0.8629999756813049 C7.664000034332275,1.5980000495910645 5.578999996185303,4.206999778747559 1.0019999742507935,4.455999851226807 C-3.5739998817443848,4.705999851226807 -7.394000053405762,2.9130001068115234 -7.5289998054504395,0.4519999921321869z"></path></g><g opacity="1" transform="matrix(1,0,0,1,223.2729949951172,60.17100143432617)"><path fill="rgb(255,240,184)" fill-opacity="1" d=" M-6.9730000495910645,5.484000205993652 C-8.630999565124512,3.2300000190734863 -6.464000225067139,-1.184000015258789 -2.131999969482422,-4.375999927520752 C2.1989998817443848,-7.566999912261963 5.315000057220459,-7.73799991607666 6.9730000495910645,-5.484000205993652 C8.630999565124512,-3.2300000190734863 8.204000473022461,0.597000002861023 3.871999979019165,3.7880001068115234 C-0.45899999141693115,6.980000019073486 -5.315000057220459,7.73799991607666 -6.9730000495910645,5.484000205993652z"></path></g><g opacity="1" transform="matrix(1,0,0,1,183.61700439453125,109.5260009765625)"><path fill="rgb(255,190,59)" fill-opacity="1" d=" M-127.64700317382812,62.48899841308594 C-120.13099670410156,69.7300033569336 -29.37700080871582,94.58499908447266 31.409000396728516,64.50399780273438 C109.99600219726562,25.61400032043457 110.38899993896484,-22.513999938964844 106.79100036621094,-32.42100143432617 C103.2770004272461,-42.09600067138672 100.94599914550781,-42.486000061035156 110.18199920654297,-52.310001373291016 C138.052001953125,-81.9540023803711 127.75399780273438,-89.12200164794922 119.13300323486328,-92.54100036621094 C114.37899780273438,-94.4260025024414 106.63300323486328,-94.58399963378906 103.28099822998047,-84.77100372314453 C102.52799987792969,-82.56700134277344 101.5989990234375,-80.26799774169922 100.45999908447266,-78.05599975585938 C100.08200073242188,-77.3219985961914 99.66899871826172,-76.56999969482422 99.22699737548828,-75.80699920654297 C92.59500122070312,-64.36100006103516 87.7249984741211,-51.30500030517578 74.87100219726562,-54.40399932861328 C57.617000579833984,-58.5629997253418 38.61899948120117,-38.00199890136719 10.039999961853027,-10 C-29.756000518798828,28.993000030517578 -107.31600189208984,36.84700012207031 -118.5719985961914,36.917999267578125 C-129.8280029296875,36.9900016784668 -138.05299377441406,52.4630012512207 -127.64700317382812,62.48899841308594z"></path><path stroke-linecap="butt" stroke-linejoin="miter" fill-opacity="0" stroke-miterlimit="10" stroke="rgb(69,31,0)" stroke-opacity="1" stroke-width="4" d=" M-127.64700317382812,62.48899841308594 C-120.13099670410156,69.7300033569336 -29.37700080871582,94.58499908447266 31.409000396728516,64.50399780273438 C109.99600219726562,25.61400032043457 110.38899993896484,-22.513999938964844 106.79100036621094,-32.42100143432617 C103.2770004272461,-42.09600067138672 100.94599914550781,-42.486000061035156 110.18199920654297,-52.310001373291016 C138.052001953125,-81.9540023803711 127.75399780273438,-89.12200164794922 119.13300323486328,-92.54100036621094 C114.37899780273438,-94.4260025024414 106.63300323486328,-94.58399963378906 103.28099822998047,-84.77100372314453 C102.52799987792969,-82.56700134277344 101.5989990234375,-80.26799774169922 100.45999908447266,-78.05599975585938 C100.08200073242188,-77.3219985961914 99.66899871826172,-76.56999969482422 99.22699737548828,-75.80699920654297 C92.59500122070312,-64.36100006103516 87.7249984741211,-51.30500030517578 74.87100219726562,-54.40399932861328 C57.617000579833984,-58.5629997253418 38.61899948120117,-38.00199890136719 10.039999961853027,-10 C-29.756000518798828,28.993000030517578 -107.31600189208984,36.84700012207031 -118.5719985961914,36.917999267578125 C-129.8280029296875,36.9900016784668 -138.05299377441406,52.4630012512207 -127.64700317382812,62.48899841308594z"></path></g><g opacity="1" transform="matrix(1,0,0,1,183.11199951171875,91.96800231933594)"><path fill="rgb(255,221,97)" fill-opacity="1" d=" M-118.44599914550781,72.33699798583984 C-103.79499816894531,73.47100067138672 -65.2959976196289,76.0199966430664 -15.85200023651123,61.18899917602539 C44.82600021362305,42.98899841308594 78.73100280761719,7.38100004196167 87.73200225830078,-16.242000579833984 C98.5739974975586,-44.70000076293945 132.8470001220703,-75.15499877929688 116.97899627685547,-75.75399780273438 C111.26100158691406,-75.97000122070312 107.04100036621094,-76.0199966430664 103.78700256347656,-67.21399688720703 C102.97899627685547,-65.02899932861328 102.1050033569336,-62.709999084472656 100.96600341796875,-60.49800109863281 C100.58799743652344,-59.763999938964844 100.17500305175781,-59.01300048828125 99.73300170898438,-58.25 C93.0999984741211,-46.80400085449219 88.35800170898438,-37.16999816894531 75.197998046875,-38.45800018310547 C48.65599822998047,-41.05799865722656 38.8120002746582,-21.218000411987305 6.360000133514404,7.288000106811523 C-35.5,44.055999755859375 -106.80999755859375,54.40399932861328 -118.06600189208984,54.47600173950195 C-129.322998046875,54.547000885009766 -132.8470001220703,71.2229995727539 -118.44599914550781,72.33699798583984z"></path><path stroke-linecap="butt" stroke-linejoin="miter" fill-opacity="0" stroke-miterlimit="10" stroke="rgb(69,31,0)" stroke-opacity="1" stroke-width="4" d=" M-118.44599914550781,72.33699798583984 C-103.79499816894531,73.47100067138672 -65.2959976196289,76.0199966430664 -15.85200023651123,61.18899917602539 C44.82600021362305,42.98899841308594 78.73100280761719,7.38100004196167 87.73200225830078,-16.242000579833984 C98.5739974975586,-44.70000076293945 132.8470001220703,-75.15499877929688 116.97899627685547,-75.75399780273438 C111.26100158691406,-75.97000122070312 107.04100036621094,-76.0199966430664 103.78700256347656,-67.21399688720703 C102.97899627685547,-65.02899932861328 102.1050033569336,-62.709999084472656 100.96600341796875,-60.49800109863281 C100.58799743652344,-59.763999938964844 100.17500305175781,-59.01300048828125 99.73300170898438,-58.25 C93.0999984741211,-46.80400085449219 88.35800170898438,-37.16999816894531 75.197998046875,-38.45800018310547 C48.65599822998047,-41.05799865722656 38.8120002746582,-21.218000411987305 6.360000133514404,7.288000106811523 C-35.5,44.055999755859375 -106.80999755859375,54.40399932861328 -118.06600189208984,54.47600173950195 C-129.322998046875,54.547000885009766 -132.8470001220703,71.2229995727539 -118.44599914550781,72.33699798583984z"></path></g><g opacity="1" transform="matrix(1,0,0,1,299.2539978027344,25.415000915527344)"><path fill="rgb(69,31,0)" fill-opacity="1" d=" M12.54699993133545,4.2129998207092285 C14.024999618530273,-3.0439999103546143 7.84499979019165,-6.820000171661377 3.496000051498413,-8.430000305175781 C-2.6989998817443848,-10.722999572753906 -7.068999767303467,-8.829999923706055 -9.177000045776367,-6.439000129699707 C-14.026000022888184,-0.9380000233650208 11.220999717712402,10.723999977111816 12.54699993133545,4.2129998207092285z"></path><path stroke-linecap="butt" stroke-linejoin="miter" fill-opacity="0" stroke-miterlimit="10" stroke="rgb(69,31,0)" stroke-opacity="1" stroke-width="3" d=" M12.54699993133545,4.2129998207092285 C14.024999618530273,-3.0439999103546143 7.84499979019165,-6.820000171661377 3.496000051498413,-8.430000305175781 C-2.6989998817443848,-10.722999572753906 -7.068999767303467,-8.829999923706055 -9.177000045776367,-6.439000129699707 C-14.026000022888184,-0.9380000233650208 11.220999717712402,10.723999977111816 12.54699993133545,4.2129998207092285z"></path></g><g opacity="1" transform="matrix(1,0,0,1,58.37699890136719,159.95799255371094)"><path fill="rgb(69,31,0)" fill-opacity="1" d=" M-2.4059998989105225,12.057000160217285 C-0.8930000066757202,13.515000343322754 4.49399995803833,7.685999870300293 6.289000034332275,4.3480000495910645 C8.468000411987305,0.2980000078678131 12.812999725341797,-13.383999824523926 6.669000148773193,-13.513999938964844 C-4.586999893188477,-13.442000389099121 -12.812000274658203,2.0309998989105225 -2.4059998989105225,12.057000160217285z"></path><path stroke-linecap="butt" stroke-linejoin="miter" fill-opacity="0" stroke-miterlimit="10" stroke="rgb(69,31,0)" stroke-opacity="1" stroke-width="3" d=" M-2.4059998989105225,12.057000160217285 C-0.8930000066757202,13.515000343322754 4.49399995803833,7.685999870300293 6.289000034332275,4.3480000495910645 C8.468000411987305,0.2980000078678131 12.812999725341797,-13.383999824523926 6.669000148773193,-13.513999938964844 C-4.586999893188477,-13.442000389099121 -12.812000274658203,2.0309998989105225 -2.4059998989105225,12.057000160217285z"></path></g><g opacity="1" transform="matrix(1,0,0,1,90.85900115966797,153.5970001220703)"><path fill="rgb(255,240,184)" fill-opacity="1" d=" M-7.633999824523926,-0.14399999380111694 C-7.5920000076293945,-2.634000062942505 -3.803999900817871,-4.5879998207092285 0.824999988079071,-4.508999824523926 C5.454999923706055,-4.429999828338623 7.676000118255615,-2.869999885559082 7.633999824523926,-0.3799999952316284 C7.591000080108643,2.109999895095825 5.302000045776367,4.586999893188477 0.6729999780654907,4.507999897003174 C-3.9570000171661377,4.428999900817871 -7.676000118255615,2.3459999561309814 -7.633999824523926,-0.14399999380111694z"></path></g><g opacity="1" transform="matrix(1,0,0,1,239.38499450683594,80.71299743652344)"><path fill="rgb(255,240,184)" fill-opacity="1" d=" M-6.888999938964844,7.5970001220703125 C-9.215999603271484,5.394000053405762 -7.671999931335449,-0.019999999552965164 -3.440000057220459,-4.497000217437744 C0.7910000085830688,-8.972999572753906 4.264999866485596,-9.800000190734863 6.5920000076293945,-7.5970001220703125 C8.918000221252441,-5.394000053405762 9.215999603271484,-0.996999979019165 4.985000133514404,3.4800000190734863 C0.7540000081062317,7.955999851226807 -4.561999797821045,9.800000190734863 -6.888999938964844,7.5970001220703125z"></path></g></g></g><g transform="matrix(0.7484104633331299,-0.4320949912071228,0.4320949912071228,0.7484104633331299,575.4925537109375,686.501708984375)" opacity="1" style="display: block;"><g opacity="1" transform="matrix(1,0,0,1,0,0)"><path fill="rgb(255,190,154)" fill-opacity="1" d=" M-225.9510040283203,-267.48199462890625 C-240.2220001220703,-285.9800109863281 -250.3489990234375,-296.5299987792969 -265.3059997558594,-286.2449951171875 C-280.26300048828125,-275.9599914550781 -295.08099365234375,-250.87100219726562 -270.7650146484375,-224.57400512695312 C-234.56100463867188,-185.42100524902344 -223.43299865722656,-168.41799926757812 -204.18800354003906,-189.7790069580078 C-194.1510009765625,-200.9199981689453 -193.3260040283203,-225.1929931640625 -225.9510040283203,-267.48199462890625z"></path></g><g opacity="1" transform="matrix(1,0,0,1,0,0)"><path fill="rgb(225,150,110)" fill-opacity="1" d=" M-225.9510040283203,-267.48199462890625 C-241.8719940185547,-288.1189880371094 -240.3179931640625,-296.5710144042969 -258.6239929199219,-290.09698486328125 C-263.80499267578125,-288.2650146484375 -260.1289978027344,-280.6090087890625 -242.6219940185547,-259.4339904785156 C-208.64300537109375,-218.33599853515625 -199.53700256347656,-195.70899963378906 -198.64999389648438,-199.65899658203125 C-195.70599365234375,-212.76800537109375 -200.8800048828125,-234.98500061035156 -225.9510040283203,-267.48199462890625z"></path></g></g><g transform="matrix(0.864457905292511,-0.49909499287605286,0.49909499287605286,0.864457905292511,618.3501586914062,634.6455688476562)" opacity="1" style="display: block;"><g opacity="1" transform="matrix(1,0,0,1,0,0)"><path fill="rgb(255,190,154)" fill-opacity="1" d=" M-220.80599975585938,-267.781005859375 C-234.58099365234375,-283.7770080566406 -240.2779998779297,-298.82000732421875 -257.8030090332031,-288.0159912109375 C-275.2659912109375,-277.3210144042969 -287.8110046386719,-248.2830047607422 -265.6260070800781,-225.5970001220703 C-224.8000030517578,-183.85000610351562 -216.86300659179688,-164.45199584960938 -193.7449951171875,-180.08999633789062 C-172.8350067138672,-194.23399353027344 -181.51800537109375,-222.15699768066406 -220.80599975585938,-267.781005859375z"></path></g><g opacity="1" transform="matrix(1,0,0,1,0,0)"><path fill="rgb(225,150,110)" fill-opacity="1" d=" M-220.80599975585938,-267.781005859375 C-236.4409942626953,-286.53399658203125 -239.29100036621094,-293.7669982910156 -247.8780059814453,-291.6390075683594 C-256.4649963378906,-289.510986328125 -243.2570037841797,-274.75201416015625 -224.86599731445312,-254.1199951171875 C-187.0469970703125,-211.69400024414062 -184.83799743652344,-189.73800659179688 -183.6750030517578,-194.67599487304688 C-180.04800415039062,-210.0800018310547 -191.60899353027344,-232.76300048828125 -220.80599975585938,-267.781005859375z"></path></g></g><g transform="matrix(0.960924506187439,-0.5547900199890137,0.5547900199890137,0.960924506187439,666.2310791015625,566.002197265625)" opacity="1" style="display: block;"><g opacity="1" transform="matrix(1,0,0,1,0,0)"><path fill="rgb(255,190,154)" fill-opacity="1" d=" M-219.0229949951172,-269.5159912109375 C-229.06300354003906,-286.7080078125 -239.8730010986328,-296.02301025390625 -249.7429962158203,-293.81298828125 C-271.4519958496094,-288.9530029296875 -290.2829895019531,-253.0070037841797 -271.4179992675781,-226.48800659179688 C-243.7100067138672,-187.53799438476562 -221.48500061035156,-155.43600463867188 -195.68699645996094,-179.6840057373047 C-191.81500244140625,-183.322998046875 -187.35400390625,-190.968994140625 -189.5800018310547,-196.5590057373047 C-194.82400512695312,-209.7259979248047 -196.968994140625,-231.7519989013672 -219.0229949951172,-269.5159912109375z"></path></g><g opacity="1" transform="matrix(1,0,0,1,0,0)"><path fill="rgb(225,150,110)" fill-opacity="1" d=" M-219.0229949951172,-269.5159912109375 C-226.1269989013672,-281.67999267578125 -237.47500610351562,-294.7690124511719 -243.593994140625,-293.9909973144531 C-249.71299743652344,-293.2130126953125 -246.6269989013672,-283.3810119628906 -219.0449981689453,-240.14999389648438 C-207.44500732421875,-221.96800231933594 -199.36099243164062,-205.47799682617188 -190.52699279785156,-193.9759979248047 C-184.86500549316406,-186.60499572753906 -195.41600036621094,-231.9810028076172 -219.0229949951172,-269.5159912109375z"></path></g></g><g transform="matrix(1,-0.000007523846306867199,0.000007523846306867199,1,541.9990234375,564.0012817382812)" opacity="1" style="display: block;"><g opacity="1" transform="matrix(1,0,0,1,0,0)"><path fill="rgb(255,190,154)" fill-opacity="1" d=" M89.38099670410156,-63.6870002746582 C83.58399963378906,-33.625 64.68499755859375,-16.232999801635742 51.400001525878906,33.08000183105469 C29.841999053955078,113.10199737548828 71.2509994506836,189.656005859375 109.54900360107422,213.09300231933594 C110.72799682617188,213.81399536132812 128.25,200 146.8820037841797,186.0959930419922 C158.6739959716797,177.29600524902344 170.5,169.75 169.62899780273438,162.36599731445312 C160,112 191.1199951171875,108.55999755859375 194.1199951171875,32.560001373291016 C195.781005859375,-9.513999938964844 181.41600036621094,-38.59600067138672 171.53799438476562,-71.7750015258789 C167.3780059814453,-85.74700164794922 159.93800354003906,-111.68900299072266 126.22100067138672,-108.31999969482422 C93,-105 92.09400177001953,-77.75299835205078 89.38099670410156,-63.6870002746582z"></path></g><g opacity="1" transform="matrix(1,0,0,1,0,0)"><path fill="rgb(225,150,110)" fill-opacity="1" d=" M89.38099670410156,-63.6870002746582 C83.58399963378906,-33.625 64.68499755859375,-16.232999801635742 51.400001525878906,33.08000183105469 C29.841999053955078,113.10199737548828 71.2509994506836,189.656005859375 109.54900360107422,213.09300231933594 C110.06800079345703,213.41099548339844 147.23599243164062,185.5919952392578 147.23599243164062,185.5919952392578 C147.23599243164062,185.5919952392578 67,120 80.65599822998047,36.11600112915039 C92.89700317382812,-39.07600021362305 109.72000122070312,-45.827999114990234 108.71800231933594,-103.25399780273438 C96.375,-95.25 92.75,-85.75 89.38099670410156,-63.6870002746582z"></path></g></g><g transform="matrix(1,-0.000007523846306867199,0.000007523846306867199,1,541.9990234375,564.0012817382812)" opacity="1" style="display: block;"><g opacity="1" transform="matrix(1,0,0,1,0,0)"><path fill="rgb(255,190,154)" fill-opacity="1" d=" M144.36000061035156,-220 C118.04399871826172,-217.25100708007812 100.12699890136719,-189.625 96.74700164794922,-171.48199462890625 C86.76399993896484,-117.89199829101562 95.04399871826172,-93.052001953125 89.38099670410156,-63.6870002746582 C86.35399627685547,-47.99100112915039 111.5780029296875,-27.84600067138672 134.9709930419922,-30.27899932861328 C156.3820037841797,-32.50600051879883 176.25900268554688,-55.91899871826172 171.53799438476562,-71.7750015258789 C163.5540008544922,-98.59300231933594 157.5070037841797,-130.69700622558594 156.60000610351562,-155.17999267578125 C156.10000610351562,-168.67999267578125 161.35899353027344,-206.5 163.64700317382812,-211.63900756835938 C165.67999267578125,-216.20599365234375 153.22999572753906,-220.927001953125 144.36000061035156,-220z"></path></g><g opacity="1" transform="matrix(1,0,0,1,0,0)"><path fill="rgb(225,150,110)" fill-opacity="1" d=" M144.36000061035156,-220 C118.04399871826172,-217.25100708007812 100.12699890136719,-189.625 96.74700164794922,-171.48199462890625 C86.76399993896484,-117.89199829101562 95.04399871826172,-93.052001953125 89.38099670410156,-63.6870002746582 C88.125,-58 91.25,-49.625 100.16500091552734,-41.90599822998047 C106.7750015258789,-63.6870002746582 110.8759994506836,-82.92500305175781 107.62100219726562,-125.38300323486328 C101.35800170898438,-207.08099365234375 153.22999572753906,-220.927001953125 144.36000061035156,-220z"></path></g></g><g transform="matrix(0.8017130494117737,-0.5977091193199158,0.5977091193199158,0.8017130494117737,441.76190185546875,494.207763671875)" opacity="1" style="display: block;"><g opacity="1" transform="matrix(1,0,0,1,-8.456999778747559,375.5639953613281)"><path fill="rgb(51,69,125)" fill-opacity="1" d=" M124,-20 C124,-20 124,20 124,20 C124,31.038000106811523 115.03800201416016,40 104,40 C104,40 -104,40 -104,40 C-115.03800201416016,40 -124,31.038000106811523 -124,20 C-124,20 -124,-20 -124,-20 C-124,-31.038000106811523 -115.03800201416016,-40 -104,-40 C-104,-40 104,-40 104,-40 C115.03800201416016,-40 124,-31.038000106811523 124,-20z"></path></g><g opacity="1" transform="matrix(1,0,0,1,-8.456999778747559,375.5639953613281)"><path fill="rgb(235,237,240)" fill-opacity="1" d=" M124,-46 C124,-46 124,-46 124,-46 C124,-40.48099899291992 119.51899719238281,-36 114,-36 C114,-36 -114,-36 -114,-36 C-119.51899719238281,-36 -124,-40.48099899291992 -124,-46 C-124,-46 -124,-46 -124,-46 C-124,-51.51900100708008 -119.51899719238281,-56 -114,-56 C-114,-56 114,-56 114,-56 C119.51899719238281,-56 124,-51.51900100708008 124,-46z"></path></g><g opacity="1" transform="matrix(1.3053499460220337,0,0,1.3053499460220337,46.172000885009766,377.0090026855469)"><path fill="rgb(235,237,240)" fill-opacity="1" d=" M0,-11.387499809265137 C6.28476095199585,-11.387499809265137 11.387499809265137,-6.28476095199585 11.387499809265137,0 C11.387499809265137,6.28476095199585 6.28476095199585,11.387499809265137 0,11.387499809265137 C-6.28476095199585,11.387499809265137 -11.387499809265137,6.28476095199585 -11.387499809265137,0 C-11.387499809265137,-6.28476095199585 -6.28476095199585,-11.387499809265137 0,-11.387499809265137z"></path></g></g></g><g style="display: none;" transform="matrix(1.8600000143051147,0,0,1.8600000143051147,114.08250427246094,355.56439208984375)" opacity="1"><g opacity="1" transform="matrix(1,0,0,1,30,0)"><path stroke-linecap="round" stroke-linejoin="round" fill-opacity="0" stroke="rgb(51,69,125)" stroke-opacity="1" stroke-width="10" d=" M168.75,41.25 C168.75,41.25 167,-31.25 198.25,-30.75 C229.5,-30.25 227.75,40.25 227.75,40.25"></path></g></g><g clip-path="url(#__lottie_element_42071)" transform="matrix(0.800000011920929,0,0,0.800000011920929,212,-10)" opacity="1" style="display: none;"><g transform="matrix(0,0,0,0,193.45399475097656,407.70599365234375)" opacity="1" style="display: block;"><g opacity="1" transform="matrix(1,0,0,1,0,0)"><path fill="rgb(57,182,85)" fill-opacity="1" d=" M-22.51799964904785,-20.25 C-22.51799964904785,-20.25 -4.205999851226807,1.6759999990463257 -4.205999851226807,1.6759999990463257 C-4.205999851226807,1.6759999990463257 26.329999923706055,11.619999885559082 26.329999923706055,11.619999885559082 C26.329999923706055,11.619999885559082 16.55900001525879,-24.790000915527344 16.55900001525879,-24.790000915527344 C16.55900001525879,-24.790000915527344 -22.51799964904785,-20.25 -22.51799964904785,-20.25z"></path></g></g><g transform="matrix(0,0,0,0,294.7909851074219,166.2899932861328)" opacity="1" style="display: block;"><g opacity="1" transform="matrix(1,0,0,1,0,0)"><path fill="rgb(57,182,85)" fill-opacity="1" d=" M-12.95199966430664,-29.735000610351562 C-12.95199966430664,-29.735000610351562 -20,26 -20,26 C-20,26 30.674999237060547,23.958999633789062 30.674999237060547,23.958999633789062 C30.674999237060547,23.958999633789062 32.87099838256836,-23.45800018310547 32.87099838256836,-23.45800018310547 C32.87099838256836,-23.45800018310547 -12.95199966430664,-29.735000610351562 -12.95199966430664,-29.735000610351562z"></path></g></g><g transform="matrix(0,0,0,0,368.20001220703125,345.302001953125)" opacity="1" style="display: block;"><g opacity="1" transform="matrix(1,0,0,1,0,0)"><path fill="rgb(57,182,85)" fill-opacity="1" d=" M-10,-34 C-10,-34 -20,26 -20,26 C-20,26 28,8 28,8 C28,8 24.334999084472656,-46.125 24.334999084472656,-46.125 C24.334999084472656,-46.125 -10,-34 -10,-34z"></path></g></g><g transform="matrix(0,0,0,0,496.86199951171875,411.9360046386719)" opacity="1" style="display: block;"><g opacity="1" transform="matrix(1,0,0,1,0,0)"><path fill="rgb(57,182,85)" fill-opacity="1" d=" M-15.201000213623047,-48.15999984741211 C-15.201000213623047,-48.15999984741211 -3.4149999618530273,14.842000007629395 -3.4149999618530273,14.842000007629395 C-3.4149999618530273,14.842000007629395 51.5369987487793,-4.440999984741211 51.5369987487793,-4.440999984741211 C51.5369987487793,-4.440999984741211 -15.201000213623047,-48.15999984741211 -15.201000213623047,-48.15999984741211z"></path></g></g><g transform="matrix(1,0,0,1,360,510)" opacity="1" style="display: block;"><g opacity="1" transform="matrix(1,0,0,1,0,0)"><path stroke-linecap="butt" stroke-linejoin="miter" fill-opacity="0" stroke-miterlimit="4" stroke="rgb(255,80,46)" stroke-opacity="1" stroke-width="16" d="M0 0"></path></g></g><g transform="matrix(0.9781476259231567,-0.2079116851091385,0.2079116851091385,0.9781476259231567,360,490)" opacity="1" style="display: block;"><g opacity="1" transform="matrix(1,0,0,1,0,0)"><path stroke-linecap="butt" stroke-linejoin="miter" fill-opacity="0" stroke-miterlimit="4" stroke="rgb(255,80,46)" stroke-opacity="1" stroke-width="16" d="M0 0"></path></g></g><g transform="matrix(0,0,0,0,360,180)" opacity="1" style="display: block;"><g opacity="1" transform="matrix(1,0,0,1,118.90599822998047,-251.07000732421875)"><path fill="url(#__lottie_element_42099)" fill-opacity="1" d=" M4.02180137202288e-15,-65.68099975585938 C4.02180137202288e-15,-65.68099975585938 19.302867889404297,-26.568117141723633 19.302867889404297,-26.568117141723633 C19.302867889404297,-26.568117141723633 62.46634292602539,-20.296545028686523 62.46634292602539,-20.296545028686523 C62.46634292602539,-20.296545028686523 31.232696533203125,10.148118019104004 31.232696533203125,10.148118019104004 C31.232696533203125,10.148118019104004 38.6063232421875,53.137046813964844 38.6063232421875,53.137046813964844 C38.6063232421875,53.137046813964844 2.010869981067102e-15,32.84000015258789 2.010869981067102e-15,32.84000015258789 C2.010869981067102e-15,32.84000015258789 -38.6063232421875,53.137046813964844 -38.6063232421875,53.137046813964844 C-38.6063232421875,53.137046813964844 -31.232696533203125,10.148118019104004 -31.232696533203125,10.148118019104004 C-31.232696533203125,10.148118019104004 -62.46634292602539,-20.296545028686523 -62.46634292602539,-20.296545028686523 C-62.46634292602539,-20.296545028686523 -19.302867889404297,-26.568117141723633 -19.302867889404297,-26.568117141723633 C-19.302867889404297,-26.568117141723633 4.02180137202288e-15,-65.68099975585938 4.02180137202288e-15,-65.68099975585938z"></path></g></g><g transform="matrix(0.0000027334060632711044,-0.0000027334060632711044,0.0000027334060632711044,0.0000027334060632711044,120.00035858154297,300.0010070800781)" opacity="1" style="display: block;"><g opacity="1" transform="matrix(1,0,0,1,118.90599822998047,-251.07000732421875)"><path fill="url(#__lottie_element_42103)" fill-opacity="1" d=" M4.02180137202288e-15,-65.68099975585938 C4.02180137202288e-15,-65.68099975585938 19.302867889404297,-26.568117141723633 19.302867889404297,-26.568117141723633 C19.302867889404297,-26.568117141723633 62.46634292602539,-20.296545028686523 62.46634292602539,-20.296545028686523 C62.46634292602539,-20.296545028686523 31.232696533203125,10.148118019104004 31.232696533203125,10.148118019104004 C31.232696533203125,10.148118019104004 38.6063232421875,53.137046813964844 38.6063232421875,53.137046813964844 C38.6063232421875,53.137046813964844 2.010869981067102e-15,32.84000015258789 2.010869981067102e-15,32.84000015258789 C2.010869981067102e-15,32.84000015258789 -38.6063232421875,53.137046813964844 -38.6063232421875,53.137046813964844 C-38.6063232421875,53.137046813964844 -31.232696533203125,10.148118019104004 -31.232696533203125,10.148118019104004 C-31.232696533203125,10.148118019104004 -62.46634292602539,-20.296545028686523 -62.46634292602539,-20.296545028686523 C-62.46634292602539,-20.296545028686523 -19.302867889404297,-26.568117141723633 -19.302867889404297,-26.568117141723633 C-19.302867889404297,-26.568117141723633 4.02180137202288e-15,-65.68099975585938 4.02180137202288e-15,-65.68099975585938z"></path></g></g><g transform="matrix(0.0000027334060632711044,0.0000027334060632711044,-0.0000027334060632711044,0.0000027334060632711044,599.9990234375,300.0003662109375)" opacity="1" style="display: block;"><g opacity="1" transform="matrix(1,0,0,1,118.90599822998047,-251.07000732421875)"><path fill="url(#__lottie_element_42107)" fill-opacity="1" d=" M4.02180137202288e-15,-65.68099975585938 C4.02180137202288e-15,-65.68099975585938 19.302867889404297,-26.568117141723633 19.302867889404297,-26.568117141723633 C19.302867889404297,-26.568117141723633 62.46634292602539,-20.296545028686523 62.46634292602539,-20.296545028686523 C62.46634292602539,-20.296545028686523 31.232696533203125,10.148118019104004 31.232696533203125,10.148118019104004 C31.232696533203125,10.148118019104004 38.6063232421875,53.137046813964844 38.6063232421875,53.137046813964844 C38.6063232421875,53.137046813964844 2.010869981067102e-15,32.84000015258789 2.010869981067102e-15,32.84000015258789 C2.010869981067102e-15,32.84000015258789 -38.6063232421875,53.137046813964844 -38.6063232421875,53.137046813964844 C-38.6063232421875,53.137046813964844 -31.232696533203125,10.148118019104004 -31.232696533203125,10.148118019104004 C-31.232696533203125,10.148118019104004 -62.46634292602539,-20.296545028686523 -62.46634292602539,-20.296545028686523 C-62.46634292602539,-20.296545028686523 -19.302867889404297,-26.568117141723633 -19.302867889404297,-26.568117141723633 C-19.302867889404297,-26.568117141723633 4.02180137202288e-15,-65.68099975585938 4.02180137202288e-15,-65.68099975585938z"></path></g></g></g><g style="display: none;" transform="matrix(1.8600000143051147,0,0,1.8600000143051147,114.08250427246094,355.56439208984375)" opacity="1"><g opacity="1" transform="matrix(1,0,0,1,0.2150000035762787,0.2930000126361847)"><path fill="rgb(242,160,41)" fill-opacity="1" d=" M294.25,16 C294.25,16 132.25,16 132.25,16 C132.25,16 155.75,240 155.75,240 C155.75,240 323.25,240 323.25,240 C323.25,240 294.25,16 294.25,16z"></path></g><g opacity="1" transform="matrix(1,0,0,1,0,0)"><path fill="rgb(232,147,23)" fill-opacity="1" d=" M286,16 C286,16 240.125,16 240.125,16 C240.125,16 240.25,239.5 240.25,239.5 C240.25,239.5 286,240 286,240 C286,240 286,16 286,16z"></path></g><g opacity="1" transform="matrix(1,0,0,1,0.5,0)"><path fill="rgb(255,179,69)" fill-opacity="1" d=" M275.5,16 C275.5,16 113.5,16 113.5,16 C113.5,16 91,240 91,240 C91,240 258.5,240 258.5,240 C258.5,240 275.5,16 275.5,16z"></path></g><g opacity="1" transform="matrix(0.996399998664856,0,0,0.996399998664856,168.6230010986328,40.95800018310547)"><path fill="rgb(232,147,23)" fill-opacity="1" d=" M0,-9.359999656677246 C5.165783882141113,-9.359999656677246 9.359999656677246,-5.165783882141113 9.359999656677246,0 C9.359999656677246,5.165783882141113 5.165783882141113,9.359999656677246 0,9.359999656677246 C-5.165783882141113,9.359999656677246 -9.359999656677246,5.165783882141113 -9.359999656677246,0 C-9.359999656677246,-5.165783882141113 -5.165783882141113,-9.359999656677246 0,-9.359999656677246z"></path></g><g opacity="1" transform="matrix(0.996399998664856,0,0,0.996399998664856,227.3730010986328,40.95800018310547)"><path fill="rgb(232,147,23)" fill-opacity="1" d=" M0,-9.359999656677246 C5.165783882141113,-9.359999656677246 9.359999656677246,-5.165783882141113 9.359999656677246,0 C9.359999656677246,5.165783882141113 5.165783882141113,9.359999656677246 0,9.359999656677246 C-5.165783882141113,9.359999656677246 -9.359999656677246,5.165783882141113 -9.359999656677246,0 C-9.359999656677246,-5.165783882141113 -5.165783882141113,-9.359999656677246 0,-9.359999656677246z"></path></g><g opacity="1" transform="matrix(1,0,0,1,0,0)"><path stroke-linecap="round" stroke-linejoin="round" fill-opacity="0" stroke="rgb(69,91,160)" stroke-opacity="1" stroke-width="10" d=" M168.75,41.25 C168.75,41.25 167,-31.25 198.25,-30.75 C229.5,-30.25 227.75,40.25 227.75,40.25"></path></g></g><g clip-path="url(#__lottie_element_42075)" transform="matrix(0.5386607646942139,0.028230011463165283,-0.031401507556438446,0.5991765260696411,338.25750732421875,459.4217834472656)" opacity="1" style="display: none;"><g transform="matrix(1.4999961853027344,0,0,1.4999961853027344,150.00022888183594,240)" opacity="0.000002165003164549262" style="display: none;"><g opacity="1" transform="matrix(1,0,0,1,60,0)"><path fill="rgb(37,171,33)" fill-opacity="1" d=" M0,-126.1624984741211 C69.62908172607422,-126.1624984741211 126.1624984741211,-69.62908172607422 126.1624984741211,0 C126.1624984741211,69.62908172607422 69.62908172607422,126.1624984741211 0,126.1624984741211 C-69.62908172607422,126.1624984741211 -126.1624984741211,69.62908172607422 -126.1624984741211,0 C-126.1624984741211,-69.62908172607422 -69.62908172607422,-126.1624984741211 0,-126.1624984741211z"></path></g></g><g transform="matrix(0.8999999761581421,0,0,0.8999999761581421,186,240)" opacity="0.24" style="display: none;"><g opacity="1" transform="matrix(1,0,0,1,60,0)"><path fill="rgb(37,171,33)" fill-opacity="1" d=" M0,-126.1624984741211 C69.62908172607422,-126.1624984741211 126.1624984741211,-69.62908172607422 126.1624984741211,0 C126.1624984741211,69.62908172607422 69.62908172607422,126.1624984741211 0,126.1624984741211 C-69.62908172607422,126.1624984741211 -126.1624984741211,69.62908172607422 -126.1624984741211,0 C-126.1624984741211,-69.62908172607422 -69.62908172607422,-126.1624984741211 0,-126.1624984741211z"></path></g></g><g transform="matrix(1,0,0,1,180,240)" opacity="1" style="display: block;"><g opacity="1" transform="matrix(1,0,0,1,60,0)"><path fill="rgb(37,171,33)" fill-opacity="1" d=" M0,-126.1624984741211 C69.62908172607422,-126.1624984741211 126.1624984741211,-69.62908172607422 126.1624984741211,0 C126.1624984741211,69.62908172607422 69.62908172607422,126.1624984741211 0,126.1624984741211 C-69.62908172607422,126.1624984741211 -126.1624984741211,69.62908172607422 -126.1624984741211,0 C-126.1624984741211,-69.62908172607422 -69.62908172607422,-126.1624984741211 0,-126.1624984741211z"></path></g></g><g transform="matrix(1,0,0,1,240,241)" opacity="1" style="display: block;"><g opacity="1" transform="matrix(1,0,0,1,0,0)"><path stroke-linecap="round" stroke-linejoin="round" fill-opacity="0" stroke="rgb(255,255,255)" stroke-opacity="1" stroke-width="24" d=" M-56.4010009765625,-0.00800000037997961 C-56.4010009765625,-0.00800000037997961 -18.719999313354492,37.66899871826172 -18.719999313354492,37.66899871826172 C-18.719999313354492,37.66899871826172 54.9640007019043,-36.54800033569336 54.9640007019043,-36.54800033569336"></path></g></g></g></g></svg>